<svg width="1280" height="320" viewBox="0 0 1280 320" xmlns="http://www.w3.org/2000/svg">
  <defs>
    <linearGradient id="bgo" x1="0" y1="0" x2="1" y2="1"><stop offset="0%" stop-color="#010812"/><stop offset="100%" stop-color="#2563eb22"/></linearGradient>
    <linearGradient id="aco" x1="0" y1="0" x2="1" y2="0"><stop offset="0%" stop-color="#3b82f6"/><stop offset="100%" stop-color="#2563eb"/></linearGradient>
    <filter id="glowo"><feGaussianBlur stdDeviation="8" result="blur"/><feMerge><feMergeNode in="blur"/><feMergeNode in="SourceGraphic"/></feMerge></filter>
  </defs>
  <rect width="1280" height="320" fill="url(#bgo)"/>
  <g opacity="0.06" stroke="#3b82f6" stroke-width="1"><line x1="0" y1="80" x2="1280" y2="80"/><line x1="0" y1="160" x2="1280" y2="160"/><line x1="0" y1="240" x2="1280" y2="240"/><line x1="320" y1="0" x2="320" y2="320"/><line x1="640" y1="0" x2="640" y2="320"/><line x1="960" y1="0" x2="960" y2="320"/></g>
  <circle cx="1100" cy="160" r="200" fill="#3b82f6" opacity="0.07" filter="url(#glowo)"/>
  <circle cx="1100" cy="160" r="120" fill="#3b82f6" opacity="0.05"/>
  <rect x="0" y="0" width="6" height="320" fill="url(#aco)"/>
  <rect x="0" y="310" width="1280" height="4" fill="url(#aco)" opacity="0.6"/>
  <text x="80" y="185" font-size="80" font-family="Segoe UI Emoji, Apple Color Emoji, sans-serif" opacity="0.9">🤖</text>
  <text x="200" y="150" font-size="64" font-weight="700" font-family="'Segoe UI', system-ui, sans-serif" fill="white" opacity="0.97" letter-spacing="-1">OpsAI</text>
  <text x="202" y="195" font-size="22" fill="#3b82f6" font-family="'Segoe UI', system-ui, sans-serif" opacity="0.95">AI-Powered DevOps Copilot</text>
  <rect x="200" y="220" width="615" height="34" rx="17" fill="#3b82f6" opacity="0.15"/>
  <rect x="200" y="220" width="615" height="34" rx="17" fill="none" stroke="#3b82f6" stroke-width="1" opacity="0.4"/>
  <text x="212" y="243" font-size="14" font-family="'Segoe UI', system-ui, monospace" fill="#3b82f6" opacity="0.9">Analyze CI/CD Failures · Auto-Fix PRs · Multi-LLM</text>
  <text x="1240" y="300" font-size="13" font-family="'Segoe UI', system-ui, sans-serif" fill="white" opacity="0.25" text-anchor="end">github.com/SamoTech</text>
</svg>