<svg xmlns="http://www.w3.org/2000/svg" width="1280" height="640" viewBox="0 0 1280 640">
  <defs>
    <linearGradient id="bg" x1="0" y1="0" x2="1" y2="1">
      <stop offset="0%" stop-color="#050d1a"/>
      <stop offset="100%" stop-color="#080f20"/>
    </linearGradient>
    <linearGradient id="accent" x1="0" y1="0" x2="1" y2="0">
      <stop offset="0%" stop-color="#38bdf8"/>
      <stop offset="100%" stop-color="#0ea5e9"/>
    </linearGradient>
    <filter id="glow">
      <feGaussianBlur stdDeviation="4" result="blur"/>
      <feMerge><feMergeNode in="blur"/><feMergeNode in="SourceGraphic"/></feMerge>
    </filter>
  </defs>
  <rect width="1280" height="640" fill="url(#bg)"/>
  <ellipse cx="960" cy="300" rx="360" ry="300" fill="#0ea5e9" fill-opacity="0.06"/>
  <ellipse cx="180" cy="160" rx="220" ry="200" fill="#38bdf8" fill-opacity="0.04"/>
  <!-- Robot icon -->
  <rect x="96" y="140" width="60" height="52" rx="8" fill="none" stroke="#38bdf8" stroke-width="2.5" filter="url(#glow)"/>
  <circle cx="114" cy="162" r="6" fill="#38bdf8" filter="url(#glow)"/>
  <circle cx="138" cy="162" r="6" fill="#38bdf8" filter="url(#glow)"/>
  <line x1="114" y1="176" x2="138" y2="176" stroke="#38bdf8" stroke-width="2" stroke-linecap="round" filter="url(#glow)"/>
  <line x1="126" y1="140" x2="126" y2="128" stroke="#38bdf8" stroke-width="2.5" stroke-linecap="round" filter="url(#glow)"/>
  <circle cx="126" cy="124" r="5" fill="#38bdf8" filter="url(#glow)"/>
  <text x="178" y="198" fill="#94a3b8" font-family="Inter, -apple-system, sans-serif" font-size="22" font-weight="500" letter-spacing="3">SAMOTECH</text>
  <text x="88" y="316" fill="#ffffff" font-family="Inter, -apple-system, sans-serif" font-size="110" font-weight="800" letter-spacing="-3">OpsAI</text>
  <rect x="88" y="334" width="180" height="4" rx="2" fill="url(#accent)"/>
  <text x="88" y="393" fill="#7dd3fc" font-family="Inter, -apple-system, sans-serif" font-size="26" font-weight="400">AI-Powered DevOps Copilot</text>
  <text x="88" y="433" fill="#475569" font-family="Inter, -apple-system, sans-serif" font-size="20">Analyze CI/CD failures · Root cause · Auto-fix PRs · Groq / GPT</text>
  <rect x="88" y="486" width="148" height="38" rx="19" fill="#0ea5e9" fill-opacity="0.1" stroke="#38bdf8" stroke-opacity="0.3" stroke-width="1"/>
  <text x="162" y="511" fill="#38bdf8" font-family="Inter, sans-serif" font-size="15" font-weight="500" text-anchor="middle">GitHub Actions</text>
  <rect x="252" y="486" width="110" height="38" rx="19" fill="#0ea5e9" fill-opacity="0.08" stroke="#38bdf8" stroke-opacity="0.25" stroke-width="1"/>
  <text x="307" y="511" fill="#38bdf8" font-family="Inter, sans-serif" font-size="15" font-weight="500" text-anchor="middle">GitLab CI</text>
  <rect x="378" y="486" width="108" height="38" rx="19" fill="#0ea5e9" fill-opacity="0.08" stroke="#38bdf8" stroke-opacity="0.25" stroke-width="1"/>
  <text x="432" y="511" fill="#38bdf8" font-family="Inter, sans-serif" font-size="15" font-weight="500" text-anchor="middle">Jenkins</text>
  <!-- Right: terminal log -->
  <rect x="840" y="140" width="360" height="340" rx="10" fill="#060e1c" stroke="#1e3a5f" stroke-width="1"/>
  <rect x="840" y="140" width="360" height="36" rx="10" fill="#0c1e35"/>
  <circle cx="866" cy="158" r="6" fill="#ef4444" opacity="0.8"/>
  <circle cx="888" cy="158" r="6" fill="#f59e0b" opacity="0.8"/>
  <circle cx="910" cy="158" r="6" fill="#22c55e" opacity="0.8"/>
  <text x="930" y="163" fill="#475569" font-family="monospace" font-size="12">pipeline.log</text>
  <text x="860" y="205" fill="#ef4444" font-family="monospace" font-size="12">✗ ERROR: npm install failed</text>
  <text x="860" y="225" fill="#64748b" font-family="monospace" font-size="12">  peer dep conflict detected</text>
  <text x="860" y="255" fill="#38bdf8" font-family="monospace" font-size="12">🤖 OpsAI Analysis:</text>
  <text x="860" y="275" fill="#7dd3fc" font-family="monospace" font-size="12">  Root cause: dependency</text>
  <text x="860" y="295" fill="#7dd3fc" font-family="monospace" font-size="12">  Confidence: 95%</text>
  <text x="860" y="325" fill="#22c55e" font-family="monospace" font-size="12">✓ Fix: npm install --legacy</text>
  <text x="860" y="345" fill="#22c55e" font-family="monospace" font-size="12">  -peer-deps</text>
  <text x="860" y="375" fill="#475569" font-family="monospace" font-size="12">→ Auto-fix PR #42 opened</text>
  <text x="860" y="395" fill="#475569" font-family="monospace" font-size="12">→ Slack alert sent</text>
  <text x="860" y="455" fill="#0ea5e9" font-family="monospace" font-size="13" opacity="0.6">Free · Pro $29/mo · Team $99/mo</text>
</svg>